<?xml version="1.0" encoding="utf-8"?>
<!-- Generator: Adobe Illustrator 16.0.4, SVG Export Plug-In . SVG Version: 6.00 Build 0)  -->
<!DOCTYPE svg PUBLIC "-//W3C//DTD SVG 1.1//EN" "http://www.w3.org/Graphics/SVG/1.1/DTD/svg11.dtd">
<svg version="1.1" id="Layer_1" xmlns="http://www.w3.org/2000/svg" xmlns:xlink="http://www.w3.org/1999/xlink" x="0px" y="0px"
	 width="127.999px" height="128px" viewBox="0 0 127.999 128" enable-background="new 0 0 127.999 128" xml:space="preserve">
<g>
	<path fill="#EA502F" d="M64,0C28.649,0,0,28.66,0,64c0,33.619,25.92,61.16,58.866,63.777c0.604-1.146,1.918-1.643,3.215-1.385
		c1.322,0.262,2.705-0.004,4.012-0.25c1.383-0.26,2.771,0.307,3.314,1.621c2.059-0.172,4.095-0.436,6.093-0.803
		c0.34-0.061,0.68-0.121,1.021-0.191c29.35-5.809,51.479-31.709,51.479-62.77C127.999,28.66,99.35,0,64,0z"/>
	<rect x="60.507" y="92.325" fill="#FFFFFF" width="7" height="8.598"/>
	<path fill="#633D50" d="M67.507,100.331h-3.203h-0.686h-3.111l-2.002-0.008l0.001,27.446c0.665,0.057,1.337,0.105,2.001,0.148
		c1.036,0.055,2.073,0.073,3.111,0.077v0.003c0.075,0,0.15-0.002,0.226-0.002c0.153,0.001,0.307,0.005,0.46,0.004v-0.006
		c1.066-0.003,2.133-0.021,3.203-0.076c0.665-0.043,1.336-0.092,2.001-0.148v-27.446L67.507,100.331z"/>
	<path fill="#FBD536" d="M64.304,32.052L64.304,32.052c-0.154-0.002-0.309-0.012-0.464-0.012c-17.09,0-30.95,13.859-30.95,30.949
		c0,15.971,12.1,29.109,27.62,30.77c1.027,0.113,2.063,0.166,3.108,0.174l0,0c0.074,0,0.147,0.006,0.222,0.006
		c1.24,0,2.47-0.068,3.67-0.219c15.36-1.811,27.28-14.881,27.28-30.73C94.79,46.054,81.179,32.3,64.304,32.052z M63.84,86.688
		c-0.069,0-0.138-0.005-0.207-0.005l0,0c-12.991-0.111-23.492-10.678-23.492-23.695c0-13.025,10.5-23.592,23.492-23.703l0,0
		c0.069,0,0.138-0.005,0.207-0.005c13.096,0,23.708,10.614,23.708,23.708C87.548,76.074,76.937,86.688,63.84,86.688z"/>
</g>
</svg>
